<svg width="199" height="199" viewBox="0 0 199 199" fill="none" xmlns="http://www.w3.org/2000/svg">
<path d="M61.0421 89.005C69.0407 70.0235 68.2382 51.5654 59.2496 47.7777C50.261 43.99 36.4901 56.3071 28.4915 75.2886C20.4929 94.2701 21.2955 112.728 30.2841 116.516C39.2727 120.304 53.0435 107.987 61.0421 89.005Z" fill="#1D6BF3"/>
<path d="M168.714 115.419C177.702 111.631 178.505 93.173 170.506 74.1915C162.508 55.21 148.737 42.8929 139.748 46.6806C130.76 50.4683 129.957 68.9264 137.956 87.9079C145.954 106.889 159.725 119.207 168.714 115.419Z" fill="#1A1B22"/>
<path d="M62.9753 64.4844C73.2404 67.5606 84.8404 69.4345 84.8404 69.4345L119.417 87.784L122.46 88.3893L141.108 109.84C144.151 111.913 144.93 116.357 142.857 119.4C140.784 122.443 136.638 123.223 133.595 121.15L131.191 119.732C134.101 121.838 134.823 125.892 132.783 128.877C130.71 131.921 126.564 132.7 123.521 130.627L122.435 129.989C123.919 132.186 124.002 135.154 122.418 137.476C120.611 140.121 117.236 141.058 114.384 139.881C116.2 142.111 116.423 145.345 114.715 147.841C112.642 150.884 108.497 151.663 105.454 149.59L101.15 147.351C85.4706 140.237 53.5145 114.947 41.7569 105.445C38.6227 102.908 36.7819 99.1104 36.7488 95.0724C36.6824 87.0294 38.5066 73.7296 50.0154 66.2671C53.8462 63.7879 58.589 63.166 62.967 64.4761L62.9753 64.4844Z" fill="white"/>
<path d="M109.201 151.373C107.783 151.373 106.357 150.966 105.105 150.104L100.868 147.907C85.3131 140.851 54.0784 116.208 41.3755 105.934C38.0837 103.273 36.1684 99.3176 36.1352 95.0889C36.0772 87.4523 37.7604 73.4974 49.6921 65.753C53.6472 63.1909 58.5476 62.5109 63.1577 63.8874C73.2653 66.9221 84.8322 68.8043 84.9482 68.8209L85.1389 68.8872L119.632 87.1952L122.791 87.8254L122.932 87.9829L141.531 109.375C144.756 111.631 145.618 116.465 143.371 119.748C141.249 122.849 137.144 123.803 133.902 122.062C134.947 124.309 134.806 127.02 133.297 129.234C131.191 132.318 127.103 133.272 123.878 131.572C124.524 133.653 124.209 135.95 122.932 137.824C121.324 140.179 118.496 141.34 115.768 140.909C116.879 143.214 116.714 146.016 115.229 148.189C113.82 150.253 111.531 151.364 109.201 151.364V151.373ZM58.3983 64.4346C55.5543 64.4346 52.7683 65.2389 50.3637 66.7977C38.9295 74.2188 37.3209 87.701 37.379 95.0806C37.4121 98.9362 39.1534 102.543 42.155 104.973C54.8246 115.213 85.9598 139.781 101.407 146.796L105.735 149.043C107.128 149.988 108.737 150.328 110.329 150.029C111.913 149.731 113.289 148.827 114.201 147.501C115.694 145.312 115.569 142.343 113.894 140.278L112.352 138.38L114.616 139.308C117.236 140.386 120.304 139.474 121.904 137.128C123.305 135.071 123.314 132.41 121.921 130.345L120.387 128.073L123.844 130.105C126.63 132.003 130.403 131.299 132.277 128.546C134.134 125.826 133.496 122.186 130.826 120.254L131.506 119.218L133.911 120.636C136.697 122.534 140.469 121.83 142.343 119.077C144.234 116.307 143.487 112.244 140.759 110.379L140.643 110.271L122.136 88.9779L119.126 88.3561L84.6414 70.0563C83.464 69.8656 72.4776 68 62.7929 65.1062C61.3419 64.6751 59.8659 64.4595 58.3983 64.4595V64.4346Z" fill="#1A1B22"/>
<path d="M155.817 101.979L142.89 111.805C119.259 87.8585 87.9415 80.4789 87.9415 80.4789C75.2055 101.216 67.2703 99.5249 63.9205 99.3342C62.768 99.2678 61.9554 98.1816 62.2041 97.0622C63.3981 91.598 70.1724 73.9617 80.8355 66.5572C98.2646 59.1527 135.32 61.5656 149.043 62.7845C152.99 63.1327 156.505 65.4378 158.354 68.9369C161.248 74.4011 163.893 83.779 159.382 96.7969C158.686 98.8118 157.451 100.611 155.817 101.979Z" fill="white"/>
<path d="M142.832 112.626L142.451 112.236C120.718 90.2133 92.0872 82.1953 88.2399 81.192C76.0595 100.843 68.199 100.263 64.4097 99.9892C64.2272 99.9726 64.0614 99.9643 63.8956 99.956C63.1659 99.9146 62.4943 99.558 62.0548 98.9776C61.6071 98.3889 61.4495 97.6426 61.6071 96.9296C62.8342 91.3327 69.5837 73.6134 80.4872 66.0431L80.595 65.9851C97.9826 58.6055 134.292 60.8525 149.101 62.1626C153.296 62.5357 156.961 64.9569 158.91 68.6467C161.911 74.3182 164.532 83.8453 159.979 96.9959C159.241 99.1269 157.94 101.009 156.223 102.452L156.198 102.468L142.832 112.626ZM87.6512 79.7658L88.0907 79.8653C88.4057 79.9399 119.508 87.4771 142.957 110.967L155.436 101.482C156.978 100.188 158.139 98.4967 158.802 96.5813C163.213 83.8536 160.693 74.6747 157.807 69.2188C156.057 65.9021 152.757 63.7297 148.985 63.3898C134.292 62.088 98.2894 59.8492 81.134 67.0879C70.6947 74.3762 63.9619 91.938 62.8094 97.1783C62.7265 97.5431 62.8094 97.9163 63.0332 98.2148C63.2571 98.505 63.5888 98.6874 63.9536 98.704C64.1195 98.7123 64.3019 98.7289 64.4843 98.7371C68.0497 98.9942 75.4873 99.5414 87.4025 80.1389L87.6346 79.7575L87.6512 79.7658Z" fill="#1A1B22"/>
<path d="M85.8766 126.216C87.8003 126.937 88.9196 129.134 88.4802 131.34L85.2879 147.418C84.409 151.132 80.8353 153.263 77.5684 152.036C74.2931 150.801 72.726 146.738 74.1688 143.23L80.9016 128.479C81.822 126.456 83.9612 125.486 85.8849 126.208L85.8766 126.216Z" fill="white"/>
<path d="M79.4756 153.015C78.7625 153.015 78.0411 152.882 77.3446 152.625C75.6946 152.003 74.3762 150.718 73.6299 149.001C72.8091 147.111 72.7925 144.93 73.5885 143.006L80.3296 128.239C81.3909 125.917 83.8701 124.806 86.1006 125.644C88.3062 126.473 89.5914 128.977 89.0939 131.473L85.9016 147.55C85.4124 149.632 84.1189 151.348 82.3611 152.285C81.449 152.774 80.4623 153.015 79.4756 153.015ZM84.5832 126.606C83.3063 126.606 82.0709 127.41 81.4573 128.753L74.7244 143.504C74.0694 145.096 74.0777 146.928 74.7659 148.512C75.3795 149.913 76.4491 150.966 77.7758 151.472C79.0859 151.97 80.5037 151.87 81.7724 151.199C83.2151 150.436 84.2681 149.01 84.6744 147.302L87.8584 131.241C88.2399 129.334 87.2863 127.435 85.6446 126.821C85.288 126.688 84.9315 126.622 84.5666 126.622L84.5832 126.606Z" fill="#1A1B22"/>
<path d="M82.6058 136.931L82.3753 136.862C80.8172 136.4 79.9281 134.761 80.3902 133.203L81.4795 129.531C81.6446 128.974 82.2218 128.661 82.7782 128.826L86.6575 129.977C87.214 130.142 87.5271 130.719 87.3621 131.275L86.2728 134.948C85.8107 136.506 84.1718 137.395 82.6138 136.933L82.6058 136.931Z" fill="#1A1B22"/>
<path d="M81.4158 116C83.6048 117.485 84.3428 120.553 83.1322 123.181L74.343 142.302C72.1374 146.671 67.0381 148.272 63.3234 145.751C59.6087 143.239 58.8625 137.683 61.7065 133.745L74.5172 117.344C76.275 115.097 79.2268 114.516 81.4158 116Z" fill="white"/>
<path d="M67.2039 147.575C65.7031 147.575 64.2521 147.136 62.9751 146.273C61.1427 145.029 59.9072 143.073 59.4926 140.751C59.0449 138.197 59.6668 135.511 61.2007 133.388L74.0279 116.97C75.9848 114.466 79.3097 113.828 81.7641 115.495C84.1935 117.145 85.0227 120.561 83.696 123.446L74.9068 142.567C73.6963 144.963 71.6151 146.696 69.1939 147.318C68.5306 147.492 67.8589 147.575 67.2039 147.575ZM78.7542 115.81C77.3778 115.81 75.9765 116.481 75.0063 117.733L62.1957 134.134C60.8691 135.967 60.3301 138.313 60.7198 140.535C61.0681 142.517 62.1211 144.192 63.6716 145.245C65.2056 146.281 67.0546 146.597 68.8788 146.116C70.9517 145.577 72.7427 144.084 73.7875 142.028L82.5683 122.932C83.6463 120.594 82.9995 117.841 81.0676 116.531C80.3628 116.05 79.5668 115.826 78.7542 115.826V115.81Z" fill="#1A1B22"/>
<path d="M74.1517 128.406L73.8788 128.248C72.0691 127.204 71.4496 124.894 72.494 123.084L74.9517 118.825C75.3206 118.186 76.1474 117.964 76.7866 118.333L81.2822 120.928C81.9213 121.297 82.143 122.123 81.7742 122.762L79.3164 127.021C78.272 128.831 75.9615 129.45 74.1517 128.406Z" fill="#1A1B22"/>
<path d="M74.0114 110.304C75.7941 112.253 75.8024 115.412 74.0197 117.684L61.0433 134.25C57.8841 137.99 52.5609 138.371 49.5261 135.063C46.4914 131.755 47.0469 126.183 50.7284 123.007L66.9884 110.014C69.2188 108.231 72.2287 108.355 74.0114 110.304Z" fill="white"/>
<path d="M54.7001 137.94C52.5194 137.94 50.5211 137.069 49.0618 135.477C47.5693 133.844 46.8147 131.655 46.9557 129.3C47.1049 126.713 48.3321 124.242 50.3221 122.526L66.5986 109.525C69.0778 107.543 72.4608 107.692 74.4674 109.881C76.4491 112.045 76.4657 115.561 74.5089 118.065L61.5324 134.632C59.7995 136.688 57.3783 137.882 54.8742 137.932C54.8162 137.932 54.7581 137.932 54.7001 137.932V137.94ZM70.446 109.384C69.3929 109.384 68.2984 109.757 67.3698 110.503L51.1098 123.496C49.3934 124.972 48.3238 127.128 48.1911 129.383C48.0751 131.398 48.7052 133.264 49.9738 134.648C51.2259 136.016 52.9423 136.721 54.8411 136.705C56.9886 136.663 59.0698 135.627 60.5623 133.861L73.5222 117.31C75.1142 115.279 75.1225 112.452 73.5471 110.735C72.7345 109.848 71.6151 109.392 70.446 109.392V109.384Z" fill="#1A1B22"/>
<path d="M64.0701 120.68L63.841 120.464C62.3221 119.029 62.254 116.638 63.6889 115.119L67.0654 111.544C67.5722 111.008 68.4279 110.983 68.9643 111.49L72.7375 115.055C73.274 115.561 73.2983 116.417 72.7916 116.954L69.415 120.528C67.9802 122.047 65.589 122.115 64.0701 120.68Z" fill="#1A1B22"/>
<path d="M63.0583 104.284C64.4679 106.125 64.2274 108.895 62.4862 110.744L49.8414 124.218C46.7818 127.244 42.097 127.153 39.7007 124.027C37.3044 120.893 38.2248 116.067 41.699 113.579L56.9308 103.488C59.0203 102.104 61.6404 102.444 63.05 104.293L63.0583 104.284Z" fill="white"/>
<path d="M44.6507 127.053C44.4849 127.053 44.319 127.053 44.1532 127.037C42.1632 126.896 40.4054 125.967 39.2114 124.4C38.0174 122.833 37.5282 120.843 37.835 118.778C38.1749 116.506 39.4518 114.425 41.334 113.074L56.5907 102.966C58.9455 101.407 61.9388 101.805 63.5474 103.911C65.1394 105.984 64.8741 109.11 62.9421 111.175L50.2973 124.649C48.7302 126.199 46.6987 127.062 44.6507 127.062V127.053ZM59.6586 103.264C58.8543 103.264 58.0252 103.505 57.2789 104.002L42.0388 114.093C40.4385 115.238 39.3523 117.02 39.0621 118.961C38.8051 120.694 39.2031 122.352 40.1981 123.645C41.1682 124.922 42.6109 125.685 44.2361 125.793C46.1017 125.926 47.9757 125.188 49.4018 123.77L62.03 110.312C63.5557 108.687 63.7796 106.258 62.5607 104.657C61.8559 103.737 60.7863 103.256 59.6586 103.256V103.264Z" fill="#1A1B22"/>
<path d="M53.5398 112.591L53.3584 112.386C52.1434 111.015 52.265 108.913 53.643 107.693L56.8769 104.829C57.3611 104.4 58.1102 104.445 58.539 104.93L61.5626 108.343C61.9914 108.828 61.946 109.577 61.4618 110.006L58.2279 112.87C56.8561 114.085 54.7547 113.963 53.5343 112.585L53.5398 112.591Z" fill="#1A1B22"/>
<path d="M62.2124 95.2713L65.3715 96.4321C66.1592 96.7223 67.0299 96.316 67.3201 95.5366L69.5339 89.5251C70.3465 87.3113 69.2189 84.8486 66.9967 84.0361C66.9304 84.0112 66.8557 83.9863 66.7894 83.9697L62.3699 94.7986C62.3036 94.9562 62.2539 95.122 62.2124 95.2796V95.2713Z" fill="#1A1B22"/>
<path d="M114.384 140.502C114.267 140.502 114.151 140.469 114.044 140.403L103.895 133.728C103.604 133.537 103.53 133.156 103.72 132.866C103.911 132.584 104.293 132.501 104.583 132.691L114.732 139.366C115.022 139.557 115.097 139.938 114.906 140.229C114.79 140.411 114.591 140.511 114.384 140.511V140.502Z" fill="#1A1B22"/>
<path d="M122.435 130.61C122.319 130.61 122.194 130.577 122.095 130.511L109.525 122.178C109.235 121.987 109.16 121.606 109.351 121.315C109.541 121.025 109.923 120.951 110.213 121.141L122.783 129.474C123.073 129.665 123.148 130.047 122.957 130.337C122.841 130.519 122.642 130.619 122.435 130.619V130.61Z" fill="#1A1B22"/>
<path d="M131.191 120.362C131.083 120.362 130.967 120.329 130.867 120.271L115.171 110.636C114.881 110.453 114.79 110.072 114.964 109.782C115.146 109.491 115.528 109.4 115.818 109.574L131.514 119.209C131.804 119.392 131.896 119.773 131.721 120.063C131.605 120.254 131.398 120.362 131.191 120.362Z" fill="#1A1B22"/>
</svg>
