<svg width="20" height="21" viewBox="0 0 20 21" fill="none" xmlns="http://www.w3.org/2000/svg">
<mask id="mask0_627_10030" style="mask-type:luminance" maskUnits="userSpaceOnUse" x="2" y="2" width="16" height="16">
<path d="M15.8333 10.2734C15.8333 8.64844 15.2672 7.26983 14.135 6.1376C13.0033 5.00594 11.625 4.4401 10 4.4401V2.77344C11.0417 2.77344 12.0175 2.97122 12.9275 3.36677C13.8369 3.76288 14.6286 4.2976 15.3025 4.97094C15.9758 5.64483 16.5106 6.43649 16.9067 7.34594C17.3022 8.25594 17.5 9.23177 17.5 10.2734H15.8333ZM12.5 10.2734C12.5 9.57899 12.2569 8.98872 11.7708 8.5026C11.2847 8.01649 10.6944 7.77344 10 7.77344V6.10677C11.1528 6.10677 12.1356 6.51288 12.9483 7.3251C13.7606 8.13788 14.1667 9.12066 14.1667 10.2734H12.5ZM16.625 17.7734C14.8333 17.7734 13.0869 17.374 11.3858 16.5751C9.68417 15.7768 8.17722 14.7212 6.865 13.4084C5.55222 12.0962 4.49667 10.5893 3.69833 8.8876C2.89944 7.18649 2.5 5.4401 2.5 3.64844C2.5 3.39844 2.58333 3.1901 2.75 3.02344C2.91667 2.85677 3.125 2.77344 3.375 2.77344H6.75C6.94444 2.77344 7.11806 2.83594 7.27083 2.96094C7.42361 3.08594 7.51389 3.24566 7.54167 3.4401L8.08333 6.35677C8.11111 6.55122 8.10778 6.72816 8.07333 6.8876C8.03833 7.0476 7.95833 7.1901 7.83333 7.3151L5.8125 9.35677C6.39583 10.3568 7.12861 11.2943 8.01083 12.1693C8.8925 13.0443 9.86111 13.8012 10.9167 14.4401L12.875 12.4818C13 12.3568 13.1633 12.2629 13.365 12.2001C13.5661 12.1379 13.7639 12.1207 13.9583 12.1484L16.8333 12.7318C17.0278 12.7734 17.1875 12.867 17.3125 13.0126C17.4375 13.1587 17.5 13.329 17.5 13.5234V16.8984C17.5 17.1484 17.4167 17.3568 17.25 17.5234C17.0833 17.6901 16.875 17.7734 16.625 17.7734ZM5.02083 7.77344L6.39583 6.39844L6.04167 4.4401H4.1875C4.25694 5.00955 4.35417 5.57205 4.47917 6.1276C4.60417 6.68316 4.78472 7.23177 5.02083 7.77344ZM12.4792 15.2318C13.0208 15.4679 13.5731 15.6554 14.1358 15.7943C14.6981 15.9332 15.2639 16.0234 15.8333 16.0651V14.2318L13.875 13.8359L12.4792 15.2318Z" fill="white"/>
</mask>
<g mask="url(#mask0_627_10030)">
<path d="M15.8333 10.2734H11.8333V14.2734H15.8333V10.2734ZM10 4.4401H6V8.4401H10V4.4401ZM10 2.77344V-1.22656H6V2.77344H10ZM12.9275 3.36677L14.5248 -0.30048L14.5221 -0.301655L12.9275 3.36677ZM15.3025 4.97094L18.1321 2.14368L18.1298 2.14134L15.3025 4.97094ZM16.9067 7.34594L20.5751 5.75136L20.5739 5.74866L16.9067 7.34594ZM17.5 10.2734V14.2734H21.5V10.2734H17.5ZM12.5 10.2734H8.5V14.2734H12.5V10.2734ZM10 7.77344H6V11.7734H10V7.77344ZM10 6.10677V2.10677H6V6.10677H10ZM12.9483 7.3251L15.7777 4.49764L15.7758 4.49571L12.9483 7.3251ZM14.1667 10.2734V14.2734H18.1667V10.2734H14.1667ZM11.3858 16.5751L13.0862 12.9545L13.0848 12.9538L11.3858 16.5751ZM6.865 13.4084L9.69403 10.5806L9.69283 10.5794L6.865 13.4084ZM3.69833 8.8876L7.31962 7.18869L7.31895 7.18726L3.69833 8.8876ZM7.54167 3.4401L3.58187 4.00579L3.59367 4.08841L3.60891 4.17047L7.54167 3.4401ZM8.08333 6.35677L12.0431 5.79109L12.0313 5.70846L12.0161 5.6264L8.08333 6.35677ZM8.07333 6.8876L11.9809 7.74239L11.9831 7.73223L8.07333 6.8876ZM7.83333 7.3151L5.00491 4.48668L4.99765 4.49393L4.99044 4.50122L7.83333 7.3151ZM5.8125 9.35677L2.96961 6.54289L0.811893 8.72284L2.35738 11.3723L5.8125 9.35677ZM8.01083 12.1693L10.8285 9.33013L10.8276 9.32924L8.01083 12.1693ZM10.9167 14.4401L8.84546 17.8621L11.5279 19.4857L13.7451 17.2685L10.9167 14.4401ZM13.365 12.2001L12.1827 8.37881L12.1761 8.38088L13.365 12.2001ZM13.9583 12.1484L14.7537 8.22831L14.6394 8.20513L14.524 8.18864L13.9583 12.1484ZM16.8333 12.7318L17.6714 8.82056L17.6501 8.81599L17.6287 8.81165L16.8333 12.7318ZM17.3125 13.0126L20.352 10.4123L20.3471 10.4066L17.3125 13.0126ZM5.02083 7.77344L1.35405 9.37178L3.69923 14.7519L7.84926 10.6019L5.02083 7.77344ZM6.39583 6.39844L9.22426 9.22686L10.7045 7.74659L10.332 5.68658L6.39583 6.39844ZM6.04167 4.4401L9.97781 3.72825L9.38315 0.440102H6.04167V4.4401ZM4.1875 4.4401V0.440102H-0.329939L0.216917 4.92432L4.1875 4.4401ZM12.4792 15.2318L9.65074 12.4033L5.50071 16.5534L10.8808 18.8986L12.4792 15.2318ZM15.8333 16.0651L15.5414 20.0544L19.8333 20.3685V16.0651H15.8333ZM15.8333 14.2318H19.8333V10.9594L16.6258 10.3111L15.8333 14.2318ZM13.875 13.8359L14.6675 9.91523L12.564 9.49006L11.0466 11.0075L13.875 13.8359ZM19.8333 10.2734C19.8333 7.60527 18.8582 5.20397 16.9634 3.30918L11.3066 8.96603C11.6762 9.33568 11.8333 9.6916 11.8333 10.2734H19.8333ZM16.9634 3.30918C15.0688 1.41453 12.6676 0.440102 10 0.440102V8.4401C10.5824 8.4401 10.9379 8.59735 11.3066 8.96603L16.9634 3.30918ZM14 4.4401V2.77344H6V4.4401H14ZM10 6.77344C10.5209 6.77344 10.951 6.86919 11.3329 7.03519L14.5221 -0.301655C13.084 -0.92676 11.5625 -1.22656 10 -1.22656V6.77344ZM11.3302 7.03402C11.8001 7.23869 12.1699 7.49544 12.4752 7.80053L18.1298 2.14134C17.0873 1.09977 15.8738 0.287069 14.5248 -0.30048L11.3302 7.03402ZM12.4729 7.7982C12.778 8.10354 13.0347 8.4733 13.2394 8.94322L20.5739 5.74866C19.9864 4.39969 19.1737 3.18611 18.1321 2.14368L12.4729 7.7982ZM13.2382 8.94051C13.4042 9.32242 13.5 9.75256 13.5 10.2734H21.5C21.5 8.71098 21.2002 7.18945 20.5751 5.75136L13.2382 8.94051ZM17.5 6.27344H15.8333V14.2734H17.5V6.27344ZM16.5 10.2734C16.5 8.53023 15.844 6.91895 14.5993 5.67418L8.94241 11.331C8.84105 11.2297 8.7136 11.0626 8.619 10.8329C8.52472 10.6039 8.5 10.4025 8.5 10.2734H16.5ZM14.5993 5.67418C13.3545 4.4294 11.7432 3.77344 10 3.77344V11.7734C9.87096 11.7734 9.66949 11.7487 9.44054 11.6544C9.21079 11.5598 9.04376 11.4324 8.94241 11.331L14.5993 5.67418ZM14 7.77344V6.10677H6V7.77344H14ZM10 10.1068C10.0525 10.1068 10.0792 10.1113 10.0854 10.1125C10.091 10.1135 10.0854 10.1128 10.074 10.1082C10.0627 10.1035 10.0576 10.0997 10.061 10.1021C10.065 10.1048 10.0855 10.1192 10.1209 10.1545L15.7758 4.49571C14.2102 2.9312 12.2093 2.10677 10 2.10677V10.1068ZM10.1189 10.1526C10.1543 10.1879 10.1687 10.2085 10.1714 10.2125C10.1737 10.2159 10.17 10.2108 10.1653 10.1994C10.1606 10.188 10.1599 10.1825 10.1609 10.188C10.1621 10.1942 10.1667 10.2209 10.1667 10.2734H18.1667C18.1667 8.06414 17.3422 6.06323 15.7777 4.49764L10.1189 10.1526ZM14.1667 6.27344H12.5V14.2734H14.1667V6.27344ZM16.625 13.7734C15.4499 13.7734 14.2819 13.5161 13.0862 12.9545L9.68549 20.1957C11.8919 21.2319 14.2168 21.7734 16.625 21.7734V13.7734ZM13.0848 12.9538C11.7975 12.3499 10.6742 11.5612 9.69403 10.5806L4.03597 16.2363C5.68026 17.8812 7.57081 19.2036 9.68692 20.1964L13.0848 12.9538ZM9.69283 10.5794C8.71225 9.59925 7.92352 8.47592 7.31962 7.18869L0.0770516 10.5865C1.06982 12.7026 2.39219 14.5932 4.03717 16.2375L9.69283 10.5794ZM7.31895 7.18726C6.75738 5.9915 6.5 4.82356 6.5 3.64844H-1.5C-1.5 6.05665 -0.958492 8.38149 0.0777199 10.5879L7.31895 7.18726ZM6.5 3.64844C6.5 3.97431 6.44414 4.37091 6.27641 4.79025C6.1068 5.21426 5.85846 5.57183 5.57843 5.85186L-0.0784271 0.195008C-1.04428 1.16086 -1.5 2.40899 -1.5 3.64844H6.5ZM5.57843 5.85186C5.2984 6.13189 4.94082 6.38024 4.51681 6.54984C4.09747 6.71758 3.70087 6.77344 3.375 6.77344V-1.22656C2.13556 -1.22656 0.887422 -0.770841 -0.0784271 0.195008L5.57843 5.85186ZM3.375 6.77344H6.75V-1.22656H3.375V6.77344ZM6.75 6.77344C6.0059 6.77344 5.28792 6.50679 4.73788 6.05677L9.80378 -0.134894C8.9482 -0.834921 7.88299 -1.22656 6.75 -1.22656V6.77344ZM4.73788 6.05677C4.46003 5.82944 4.18755 5.52606 3.97087 5.14271C3.75402 4.75904 3.63342 4.36664 3.58187 4.00579L11.5015 2.87442C11.3311 1.68211 10.7281 0.621382 9.80378 -0.134894L4.73788 6.05677ZM3.60891 4.17047L4.15058 7.08714L12.0161 5.6264L11.4744 2.70974L3.60891 4.17047ZM4.12354 6.92246C4.09757 6.74068 4.07975 6.43077 4.16352 6.04298L11.9831 7.73223C12.1358 7.02555 12.1247 6.36176 12.0431 5.79109L4.12354 6.92246ZM4.16573 6.03282C4.30728 5.38572 4.63356 4.85802 5.00491 4.48668L10.6618 10.1435C11.2831 9.52219 11.7694 8.70949 11.9809 7.74239L4.16573 6.03282ZM4.99044 4.50122L2.96961 6.54289L8.65539 12.1707L10.6762 10.129L4.99044 4.50122ZM2.35738 11.3723C3.12898 12.695 4.08205 13.9064 5.19405 15.0093L10.8276 9.32924C10.1752 8.68214 9.66269 8.01855 9.26762 7.34129L2.35738 11.3723ZM5.19316 15.0084C6.29816 16.1051 7.51704 17.0581 8.84546 17.8621L12.9879 11.0181C12.2052 10.5444 11.4868 9.98349 10.8285 9.33013L5.19316 15.0084ZM13.7451 17.2685L15.7034 15.3102L10.0466 9.65334L8.08824 11.6117L13.7451 17.2685ZM15.7034 15.3102C15.289 15.7246 14.851 15.9268 14.5539 16.0193L12.1761 8.38088C11.4756 8.59893 10.711 8.98892 10.0466 9.65334L15.7034 15.3102ZM14.5473 16.0214C14.2245 16.1213 13.8253 16.17 13.3926 16.1082L14.524 8.18864C13.7025 8.07127 12.9077 8.1545 12.1827 8.37881L14.5473 16.0214ZM13.1629 16.0686L16.0379 16.6519L17.6287 8.81165L14.7537 8.22831L13.1629 16.0686ZM15.9952 16.643C15.368 16.5086 14.7446 16.1621 14.2779 15.6186L20.3471 10.4066C19.6304 9.57201 18.6875 9.0383 17.6714 8.82056L15.9952 16.643ZM14.273 15.6129C14.045 15.3463 13.8404 15.016 13.6981 14.6282C13.556 14.241 13.5 13.8624 13.5 13.5234H21.5C21.5 12.3872 21.1045 11.2919 20.352 10.4123L14.273 15.6129ZM13.5 13.5234V16.8984H21.5V13.5234H13.5ZM13.5 16.8984C13.5 16.5726 13.5559 16.176 13.7236 15.7566C13.8932 15.3326 14.1415 14.975 14.4216 14.695L20.0784 20.3519C21.0443 19.386 21.5 18.1379 21.5 16.8984H13.5ZM14.4216 14.695C14.7016 14.415 15.0592 14.1666 15.4832 13.997C15.9025 13.8293 16.2991 13.7734 16.625 13.7734V21.7734C17.8644 21.7734 19.1126 21.3177 20.0784 20.3519L14.4216 14.695ZM7.84926 10.6019L9.22426 9.22686L3.56741 3.57001L2.19241 4.94501L7.84926 10.6019ZM10.332 5.68658L9.97781 3.72825L2.10552 5.15196L2.45969 7.11029L10.332 5.68658ZM6.04167 0.440102H4.1875V8.4401H6.04167V0.440102ZM0.216917 4.92432C0.302379 5.62512 0.422248 6.31908 0.576728 7.00565L8.38161 5.24956C8.28609 4.82502 8.21151 4.39398 8.15808 3.95589L0.216917 4.92432ZM0.576728 7.00565C0.759355 7.81733 1.02057 8.60673 1.35405 9.37178L8.68762 6.1751C8.54888 5.85681 8.44898 5.54899 8.38161 5.24956L0.576728 7.00565ZM10.8808 18.8986C11.6253 19.2231 12.3914 19.4838 13.1774 19.6778L15.0951 11.911C14.7556 11.8272 14.4164 11.7127 14.0775 11.565L10.8808 18.8986ZM13.1774 19.6778C13.9556 19.8701 14.7437 19.9961 15.5414 20.0544L16.1252 12.0758C15.7841 12.0508 15.4414 11.9966 15.0951 11.911L13.1774 19.6778ZM19.8333 16.0651V14.2318H11.8333V16.0651H19.8333ZM16.6258 10.3111L14.6675 9.91523L13.0825 17.7566L15.0408 18.1525L16.6258 10.3111ZM11.0466 11.0075L9.65074 12.4033L15.3076 18.0602L16.7034 16.6644L11.0466 11.0075Z" fill="#B5B5B7"/>
</g>
</svg>
