<svg width="20" height="17" viewBox="0 0 20 17" fill="none" xmlns="http://www.w3.org/2000/svg">
<path d="M10 4.63282V15.8828M10 4.63282C10.625 2.16563 12.9856 0.905857 18.125 0.882817C18.2072 0.882507 18.2886 0.898457 18.3645 0.929757C18.4405 0.961057 18.5095 1.00709 18.5676 1.06518C18.6257 1.12328 18.6718 1.19231 18.7031 1.26827C18.7344 1.34424 18.7503 1.42565 18.75 1.50782V12.7578C18.75 12.9236 18.6842 13.0825 18.5669 13.1998C18.4497 13.317 18.2908 13.3828 18.125 13.3828C13.125 13.3828 11.1934 14.391 10 15.8828M10 4.63282C9.375 2.16563 7.01446 0.905857 1.875 0.882817C1.79284 0.882507 1.71143 0.898457 1.63546 0.929757C1.55949 0.961057 1.49047 1.00709 1.43237 1.06518C1.37427 1.12328 1.32825 1.19231 1.29695 1.26827C1.26565 1.34424 1.24969 1.42565 1.25 1.50782V12.6824C1.25 13.0684 1.48907 13.3828 1.875 13.3828C6.875 13.3828 8.81368 14.3984 10 15.8828" stroke="#B5B5B7" stroke-width="1.5" stroke-linecap="round" stroke-linejoin="round"/>
</svg>
