<svg width="18" height="19" viewBox="0 0 18 19" fill="none" xmlns="http://www.w3.org/2000/svg">
<path fill-rule="evenodd" clip-rule="evenodd" d="M1.99935 0.832031C1.64573 0.832031 1.30659 0.972511 1.05654 1.22256C0.806485 1.4726 0.666016 1.81174 0.666016 2.16536V16.832C0.666016 17.1857 0.806485 17.5248 1.05654 17.7748C1.30659 18.0249 1.64573 18.1654 1.99935 18.1654H11.9993C12.1761 18.1654 12.3457 18.0951 12.4707 17.9701C12.5957 17.8451 12.666 17.6755 12.666 17.4987C12.666 17.3219 12.5957 17.1523 12.4707 17.0273C12.3457 16.9023 12.1761 16.832 11.9993 16.832H1.99935V2.16536H11.9993C12.1761 2.16536 12.3457 2.09513 12.4707 1.9701C12.5957 1.84508 12.666 1.67551 12.666 1.4987C12.666 1.32189 12.5957 1.15232 12.4707 1.02729C12.3457 0.902271 12.1761 0.832031 11.9993 0.832031H1.99935ZM14.8047 6.0267C14.6795 5.90152 14.5097 5.83119 14.3327 5.83119C14.1556 5.83119 13.9858 5.90152 13.8607 6.0267C13.7355 6.15188 13.6651 6.32166 13.6651 6.4987C13.6651 6.67573 13.7355 6.84552 13.8607 6.9707L15.7233 8.83203H6.66602C6.48921 8.83203 6.31964 8.90227 6.19461 9.02729C6.06959 9.15232 5.99935 9.32189 5.99935 9.4987C5.99935 9.6755 6.06959 9.8451 6.19461 9.9701C6.31964 10.0951 6.48921 10.1654 6.66602 10.1654H15.7233L13.8607 12.0267C13.7355 12.1519 13.6651 12.3217 13.6651 12.4987C13.6651 12.6757 13.7355 12.8455 13.8607 12.9707C13.9858 13.0959 14.1556 13.1662 14.3327 13.1662C14.5097 13.1662 14.6795 13.0959 14.8047 12.9707L17.8047 9.9707C17.8667 9.9088 17.916 9.8352 17.9496 9.7542C17.9832 9.6732 18.0005 9.5864 18.0005 9.4987C18.0005 9.41101 17.9832 9.32418 17.9496 9.24319C17.916 9.16219 17.8667 9.08862 17.8047 9.0267L14.8047 6.0267Z" fill="#B5B5B7" stroke="#B5B5B7"/>
</svg>
