<svg width="20" height="21" viewBox="0 0 20 21" fill="none" xmlns="http://www.w3.org/2000/svg">
<mask id="mask0_627_10042" style="mask-type:luminance" maskUnits="userSpaceOnUse" x="1" y="2" width="18" height="17">
<path d="M10.0006 2.375C8.58953 2.37489 7.20274 2.74229 5.97679 3.44101C4.75083 4.13973 3.72799 5.14569 3.00896 6.35985C2.28992 7.574 1.8995 8.95448 1.87612 10.3654C1.85274 11.7763 2.19721 13.1689 2.87562 14.4062L2.21156 16.75C2.14961 16.9636 2.14613 17.1899 2.20147 17.4052C2.25682 17.6206 2.36897 17.8172 2.52621 17.9744C2.68345 18.1316 2.88002 18.2438 3.09539 18.2991C3.31077 18.3545 3.53705 18.351 3.75062 18.2891L6.09437 17.625C7.18053 18.2203 8.38842 18.5594 9.62571 18.6164C10.863 18.6734 12.097 18.4467 13.2332 17.9538C14.3695 17.4608 15.3781 16.7146 16.1818 15.7721C16.9855 14.8297 17.5631 13.716 17.8704 12.5161C18.1778 11.3162 18.2067 10.062 17.9551 8.84922C17.7034 7.63645 17.1778 6.49727 16.4184 5.51874C15.6591 4.54022 14.6861 3.74825 13.5737 3.20339C12.4614 2.65852 11.2392 2.37517 10.0006 2.375ZM10.0006 17.375C8.76649 17.3739 7.55522 17.042 6.49281 16.4141C6.39477 16.3594 6.28472 16.3299 6.1725 16.3281C6.11441 16.3282 6.0566 16.3361 6.00062 16.3516L3.40687 17.0938L4.14906 14.5C4.17189 14.4179 4.17812 14.3321 4.16739 14.2476C4.15666 14.1631 4.12918 14.0816 4.08656 14.0078C3.31262 12.7033 2.99184 11.1794 3.17419 9.67352C3.35654 8.16766 4.03178 6.76439 5.09473 5.68227C6.15768 4.60015 7.54867 3.89994 9.05103 3.69072C10.5534 3.48149 12.0828 3.77499 13.401 4.52549C14.7191 5.276 15.7521 6.44138 16.339 7.84011C16.9258 9.23884 17.0336 10.7924 16.6456 12.2588C16.2575 13.7251 15.3954 15.022 14.1936 15.9474C12.9917 16.8728 11.5175 17.3747 10.0006 17.375ZM10.9381 10.5C10.9381 10.6854 10.8832 10.8667 10.7801 11.0208C10.6771 11.175 10.5307 11.2952 10.3594 11.3661C10.1881 11.4371 9.99958 11.4557 9.81772 11.4195C9.63587 11.3833 9.46882 11.294 9.33771 11.1629C9.2066 11.0318 9.11731 10.8648 9.08113 10.6829C9.04496 10.501 9.06353 10.3125 9.13448 10.1412C9.20544 9.96993 9.3256 9.82351 9.47977 9.7205C9.63394 9.61748 9.8152 9.5625 10.0006 9.5625C10.2493 9.5625 10.4877 9.66127 10.6636 9.83709C10.8394 10.0129 10.9381 10.2514 10.9381 10.5ZM7.18812 10.5C7.18812 10.6854 7.13314 10.8667 7.03012 11.0208C6.92711 11.175 6.78069 11.2952 6.60939 11.3661C6.43808 11.4371 6.24958 11.4557 6.06772 11.4195C5.88587 11.3833 5.71882 11.294 5.58771 11.1629C5.4566 11.0318 5.36731 10.8648 5.33113 10.6829C5.29496 10.501 5.31353 10.3125 5.38448 10.1412C5.45544 9.96993 5.5756 9.82351 5.72977 9.7205C5.88395 9.61748 6.0652 9.5625 6.25062 9.5625C6.49926 9.5625 6.73772 9.66127 6.91353 9.83709C7.08935 10.0129 7.18812 10.2514 7.18812 10.5ZM14.6881 10.5C14.6881 10.6854 14.6332 10.8667 14.5301 11.0208C14.4271 11.175 14.2807 11.2952 14.1094 11.3661C13.9381 11.4371 13.7496 11.4557 13.5677 11.4195C13.3859 11.3833 13.2188 11.294 13.0877 11.1629C12.9566 11.0318 12.8673 10.8648 12.8312 10.6829C12.795 10.501 12.8135 10.3125 12.8845 10.1412C12.9555 9.96993 13.0756 9.82351 13.2298 9.7205C13.384 9.61748 13.5652 9.5625 13.7506 9.5625C13.9993 9.5625 14.2377 9.66127 14.4136 9.83709C14.5894 10.0129 14.6881 10.2514 14.6881 10.5Z" fill="white"/>
</mask>
<g mask="url(#mask0_627_10042)">
<path d="M10.0006 2.375C8.58953 2.37489 7.20274 2.74229 5.97679 3.44101C4.75083 4.13973 3.72799 5.14569 3.00896 6.35985C2.28992 7.574 1.8995 8.95448 1.87612 10.3654C1.85274 11.7763 2.19721 13.1689 2.87562 14.4062L2.21156 16.75C2.14961 16.9636 2.14613 17.1899 2.20147 17.4052C2.25682 17.6206 2.36897 17.8172 2.52621 17.9744C2.68345 18.1316 2.88002 18.2438 3.09539 18.2991C3.31077 18.3545 3.53705 18.351 3.75062 18.2891L6.09437 17.625C7.18053 18.2203 8.38842 18.5594 9.62571 18.6164C10.863 18.6734 12.097 18.4467 13.2332 17.9538C14.3695 17.4608 15.3781 16.7146 16.1818 15.7721C16.9855 14.8297 17.5631 13.716 17.8704 12.5161C18.1778 11.3162 18.2067 10.062 17.9551 8.84922C17.7034 7.63645 17.1778 6.49727 16.4184 5.51874C15.6591 4.54022 14.6861 3.74825 13.5737 3.20339C12.4614 2.65852 11.2392 2.37517 10.0006 2.375ZM10.0006 17.375C8.76649 17.3739 7.55522 17.042 6.49281 16.4141C6.39477 16.3594 6.28472 16.3299 6.1725 16.3281C6.11441 16.3282 6.0566 16.3361 6.00062 16.3516L3.40687 17.0938L4.14906 14.5C4.17189 14.4179 4.17812 14.3321 4.16739 14.2476C4.15666 14.1631 4.12918 14.0816 4.08656 14.0078C3.31262 12.7033 2.99184 11.1794 3.17419 9.67352C3.35654 8.16766 4.03178 6.76439 5.09473 5.68227C6.15768 4.60015 7.54867 3.89994 9.05103 3.69072C10.5534 3.48149 12.0828 3.77499 13.401 4.52549C14.7191 5.276 15.7521 6.44138 16.339 7.84011C16.9258 9.23884 17.0336 10.7924 16.6456 12.2588C16.2575 13.7251 15.3954 15.022 14.1936 15.9474C12.9917 16.8728 11.5175 17.3747 10.0006 17.375ZM10.9381 10.5C10.9381 10.6854 10.8832 10.8667 10.7801 11.0208C10.6771 11.175 10.5307 11.2952 10.3594 11.3661C10.1881 11.4371 9.99958 11.4557 9.81772 11.4195C9.63587 11.3833 9.46882 11.294 9.33771 11.1629C9.2066 11.0318 9.11731 10.8648 9.08113 10.6829C9.04496 10.501 9.06353 10.3125 9.13448 10.1412C9.20544 9.96993 9.3256 9.82351 9.47977 9.7205C9.63394 9.61748 9.8152 9.5625 10.0006 9.5625C10.2493 9.5625 10.4877 9.66127 10.6636 9.83709C10.8394 10.0129 10.9381 10.2514 10.9381 10.5ZM7.18812 10.5C7.18812 10.6854 7.13314 10.8667 7.03012 11.0208C6.92711 11.175 6.78069 11.2952 6.60939 11.3661C6.43808 11.4371 6.24958 11.4557 6.06772 11.4195C5.88587 11.3833 5.71882 11.294 5.58771 11.1629C5.4566 11.0318 5.36731 10.8648 5.33113 10.6829C5.29496 10.501 5.31353 10.3125 5.38448 10.1412C5.45544 9.96993 5.5756 9.82351 5.72977 9.7205C5.88395 9.61748 6.0652 9.5625 6.25062 9.5625C6.49926 9.5625 6.73772 9.66127 6.91353 9.83709C7.08935 10.0129 7.18812 10.2514 7.18812 10.5ZM14.6881 10.5C14.6881 10.6854 14.6332 10.8667 14.5301 11.0208C14.4271 11.175 14.2807 11.2952 14.1094 11.3661C13.9381 11.4371 13.7496 11.4557 13.5677 11.4195C13.3859 11.3833 13.2188 11.294 13.0877 11.1629C12.9566 11.0318 12.8673 10.8648 12.8312 10.6829C12.795 10.501 12.8135 10.3125 12.8845 10.1412C12.9555 9.96993 13.0756 9.82351 13.2298 9.7205C13.384 9.61748 13.5652 9.5625 13.7506 9.5625C13.9993 9.5625 14.2377 9.66127 14.4136 9.83709C14.5894 10.0129 14.6881 10.2514 14.6881 10.5Z" stroke="#B5B5B7" stroke-width="2"/>
</g>
</svg>
