<svg width="21" height="22" viewBox="0 0 21 22" fill="none" xmlns="http://www.w3.org/2000/svg">
<g clip-path="url(#clip0_627_10058)">
<path d="M10.2368 9.19684C10.3061 9.21996 10.378 9.23684 10.4505 9.24746C10.5661 9.27684 10.6836 9.29746 10.8024 9.30996C10.8589 9.58206 11.0055 9.82717 11.2185 10.0057C11.4315 10.1843 11.6984 10.2859 11.9762 10.2941C12.2539 10.3024 12.5264 10.2167 12.7496 10.0511C12.9727 9.88548 13.1336 9.64949 13.2061 9.38121C13.3424 8.88996 13.4124 8.38246 13.4143 7.87246C13.7125 7.46784 13.9578 7.02677 14.1443 6.55996L14.1524 6.54121L14.2193 6.37871L14.3049 6.16246C14.3964 5.92556 14.4828 5.68676 14.5643 5.44621L14.5811 5.39621L14.5874 5.37621C14.6299 5.25121 14.6724 5.11246 14.7124 4.97246C14.7361 4.89184 14.7586 4.80996 14.7805 4.72746C14.8833 4.36164 14.9507 3.98679 14.9818 3.60809V3.58934C14.9926 3.27936 14.8878 2.97643 14.6878 2.73941C14.4877 2.50239 14.2067 2.34821 13.8993 2.30684C13.6562 2.27564 13.4093 2.3181 13.1905 2.42871C12.9984 2.52599 12.8347 2.67123 12.7152 2.85037C12.5958 3.02952 12.5246 3.23648 12.5086 3.45121V3.45746C12.46 3.83964 12.3698 4.21539 12.2399 4.57809C12.1774 4.76559 12.1149 4.94371 12.0524 5.10309C11.9274 5.03871 11.7961 4.98434 11.6624 4.94059L11.6505 4.93496C11.0877 4.75604 10.4771 4.80607 9.95094 5.07421C9.42478 5.34235 9.02547 5.80701 8.83951 6.36751C8.65355 6.92801 8.69593 7.53921 8.95747 8.06868C9.219 8.59815 9.67862 9.00389 10.2368 9.19684ZM12.603 9.21621C12.5698 9.33961 12.4987 9.44948 12.3997 9.53037C12.3008 9.61127 12.179 9.65911 12.0514 9.66718C11.9239 9.67525 11.797 9.64314 11.6887 9.57537C11.5803 9.50759 11.4959 9.40756 11.4474 9.28934C11.5661 9.26809 11.683 9.23809 11.7968 9.19934C12.1406 9.077 12.4568 8.88797 12.7274 8.64309C12.6961 8.83684 12.6549 9.02746 12.603 9.21621ZM9.40925 6.55371C9.47609 6.35218 9.58199 6.16579 9.72089 6.0052C9.85978 5.84461 10.029 5.71295 10.2188 5.61777C10.4086 5.52258 10.6152 5.46572 10.827 5.45044C11.0388 5.43516 11.2515 5.46176 11.453 5.52871L11.4718 5.53496C11.5936 5.57371 11.7111 5.62496 11.8224 5.68746L11.8093 5.71809V5.72559C11.6695 6.05082 11.4797 6.35218 11.2468 6.61871L11.2368 6.62871L11.2211 6.64684C11.2012 6.67036 11.1804 6.69308 11.1586 6.71496C11.138 6.70654 11.1172 6.69862 11.0961 6.69121L11.0774 6.68496C10.9779 6.65208 10.8695 6.65992 10.7758 6.70677C10.6821 6.75362 10.6108 6.83566 10.5774 6.93496C10.5587 6.98336 10.5507 7.03523 10.5539 7.08702C10.5571 7.13881 10.5715 7.18928 10.5961 7.23496C10.6336 7.31496 10.6974 7.37934 10.7768 7.41746C10.798 7.42246 10.8186 7.42809 10.8393 7.43496C10.8955 7.45496 10.9543 7.46809 11.0136 7.47309C11.1088 7.47871 11.2035 7.45703 11.2868 7.41059C11.3305 7.38809 11.3724 7.36246 11.4118 7.33309C11.5168 7.25059 11.613 7.15809 11.698 7.05496L11.7043 7.04871C11.9835 6.73407 12.2108 6.37687 12.3774 5.99059C12.3969 5.94627 12.4152 5.90146 12.4324 5.85621C12.4332 5.85314 12.4332 5.84991 12.4324 5.84684L12.4386 5.83184C12.4734 5.75039 12.5072 5.66851 12.5399 5.58621L12.5611 5.53184L12.5824 5.47684C12.8474 4.84246 13.0324 4.17746 13.1343 3.49746C13.1462 3.3353 13.2208 3.18418 13.3424 3.07621C13.4635 2.96845 13.6224 2.91316 13.7843 2.92246C13.9186 2.92996 14.0468 2.98246 14.1468 3.07246C14.2167 3.13377 14.2721 3.20991 14.3088 3.29533C14.3456 3.38074 14.3628 3.47329 14.3593 3.56621C14.353 3.66559 14.3411 3.77059 14.3249 3.87871C14.2749 4.18621 14.2049 4.49121 14.1149 4.78934L14.0886 4.87684C13.9751 5.24927 13.8469 5.61706 13.7043 5.97934L13.6836 6.03184C13.6483 6.12156 13.612 6.21094 13.5749 6.29996L13.5655 6.32246L13.5118 6.45246C13.292 6.96237 12.9938 7.43474 12.628 7.85246C12.3353 8.22498 11.9362 8.49964 11.4836 8.63996C11.2714 8.69761 11.0499 8.7129 10.8318 8.68496C10.7427 8.67393 10.6545 8.65638 10.568 8.63246C10.5225 8.62853 10.4775 8.61909 10.4343 8.60434C10.2323 8.53705 10.0455 8.43061 9.88469 8.29112C9.72386 8.15164 9.59208 7.98182 9.49689 7.79139C9.40171 7.60096 9.34497 7.39364 9.32994 7.18127C9.3149 6.96891 9.34185 6.75566 9.40925 6.55371ZM8.16738 3.53371C8.10195 3.58008 8.0279 3.61287 7.94958 3.63013C7.87127 3.64739 7.79029 3.64878 7.71144 3.63421C7.63258 3.61964 7.55744 3.58942 7.49046 3.54531C7.42349 3.50121 7.36603 3.44413 7.32149 3.37745C7.27695 3.31076 7.24623 3.23583 7.23115 3.15707C7.21606 3.07831 7.21692 2.99732 7.23366 2.9189C7.25041 2.84047 7.28271 2.7662 7.32865 2.70047C7.37459 2.63474 7.43324 2.57889 7.50113 2.53621C7.63342 2.45306 7.79292 2.42479 7.94573 2.45742C8.09854 2.49005 8.23259 2.58101 8.31938 2.71094C8.40616 2.84088 8.43884 2.99954 8.41045 3.15319C8.38206 3.30684 8.29486 3.44336 8.16738 3.53371ZM15.6099 15.3125C15.676 15.2655 15.7508 15.2323 15.8299 15.2148C15.9091 15.1973 15.9909 15.1958 16.0706 15.2105C16.1503 15.2252 16.2263 15.2557 16.294 15.3002C16.3617 15.3447 16.4198 15.4024 16.4649 15.4697C16.5099 15.5371 16.541 15.6128 16.5563 15.6924C16.5716 15.772 16.5708 15.8539 16.5539 15.9331C16.537 16.0124 16.5043 16.0875 16.4579 16.1539C16.4115 16.2204 16.3523 16.2768 16.2836 16.32C16.15 16.404 15.9889 16.4326 15.8345 16.3997C15.6802 16.3668 15.5447 16.275 15.457 16.1438C15.3692 16.0125 15.3361 15.8523 15.3647 15.6971C15.3932 15.5418 15.4812 15.4039 15.6099 15.3125ZM16.2343 6.61621C16.4266 6.61621 16.611 6.53983 16.7469 6.40387C16.8829 6.2679 16.9593 6.0835 16.9593 5.89121C16.9593 5.69893 16.8829 5.51453 16.7469 5.37856C16.611 5.2426 16.4266 5.16621 16.2343 5.16621C16.042 5.16621 15.8576 5.2426 15.7216 5.37856C15.5857 5.51453 15.5093 5.69893 15.5093 5.89121C15.5093 6.0835 15.5857 6.2679 15.7216 6.40387C15.8576 6.53983 16.042 6.61621 16.2343 6.61621ZM4.78675 6.49371C4.70765 6.54899 4.61831 6.58792 4.52397 6.60821C4.42963 6.62851 4.33218 6.62977 4.23735 6.61191C4.14251 6.59406 4.0522 6.55745 3.97169 6.50424C3.89119 6.45102 3.82212 6.38228 3.76853 6.30202C3.71495 6.22177 3.67792 6.13162 3.65963 6.03687C3.64133 5.94212 3.64214 5.84467 3.662 5.75023C3.68186 5.6558 3.72037 5.56628 3.77528 5.48692C3.83018 5.40756 3.90038 5.33996 3.98175 5.28809C4.14171 5.18134 4.33753 5.14251 4.52612 5.18013C4.71471 5.21775 4.88063 5.32876 4.98738 5.48871C5.09413 5.64867 5.13296 5.84449 5.09534 6.03308C5.05771 6.22167 4.94671 6.38696 4.78675 6.49371Z" fill="#1D6BF3" stroke="#1D6BF3" stroke-width="0.2"/>
<path d="M19.0034 10.3546C18.9256 10.3906 18.8414 10.4109 18.7557 10.4143C18.6701 10.4178 18.5845 10.4043 18.5041 10.3746C17.8412 10.1266 17.126 10.0521 16.4263 10.1581C15.7266 10.2641 15.0656 10.5471 14.5059 10.9803C15.9603 11.0178 17.3822 11.414 18.6453 12.1359C18.9542 12.3102 19.1816 12.5996 19.278 12.9409C19.3743 13.2823 19.3319 13.6478 19.1598 13.958C18.9877 14.2681 18.7001 14.4977 18.3594 14.5965C18.0188 14.6954 17.653 14.6557 17.3416 14.4859C16.5939 14.0519 15.7623 13.7822 14.9022 13.6945C14.0422 13.6069 13.1733 13.7035 12.3534 13.9778C12.5628 14.3796 12.7197 14.8071 12.8191 15.2496C12.8547 15.3815 12.8722 15.5184 12.8716 15.6546C12.8928 15.8274 12.877 16.0026 12.8253 16.1688C12.7735 16.335 12.6871 16.4882 12.5716 16.6184C12.5216 16.6684 12.4659 16.7121 12.4059 16.749C12.2213 16.9264 11.9943 17.0536 11.7466 17.1184L3.78527 19.2496C3.52859 19.3181 3.25839 19.3178 3.00187 19.2487C2.74534 19.1796 2.51155 19.0441 2.32401 18.856C2.13647 18.6678 2.00181 18.4335 1.93356 18.1768C1.86532 17.92 1.86591 17.6498 1.93527 17.3934L4.06652 9.43089C4.13198 9.18036 4.26117 8.95105 4.44152 8.76526C4.4771 8.70763 4.51903 8.65417 4.56652 8.60589C4.69261 8.49324 4.84089 8.40824 5.00182 8.35635C5.16275 8.30447 5.33275 8.28685 5.5009 8.30464C5.65277 8.30089 5.80465 8.32026 5.9509 8.36214C6.33905 8.44983 6.71543 8.58326 7.07215 8.75964C7.24715 7.74714 7.0784 6.70464 6.59152 5.79964C6.49952 5.62807 6.47945 5.42699 6.53571 5.24063C6.59197 5.05426 6.71996 4.89788 6.89152 4.80589C7.06308 4.71389 7.26416 4.69381 7.45053 4.75007C7.63689 4.80633 7.79327 4.93432 7.88527 5.10589C8.61623 6.46761 8.80041 8.05682 8.40027 9.54964C8.88544 9.89405 9.34671 10.271 9.7809 10.6778C9.91256 10.5443 10.0912 10.4675 10.2786 10.4639C10.4661 10.4602 10.6476 10.53 10.7844 10.6583C10.9211 10.7865 11.0023 10.9632 11.0107 11.1505C11.019 11.3378 10.9539 11.521 10.8291 11.6609C11.7345 11.3066 12.6864 11.0853 13.6553 11.004C13.5785 10.9423 13.5165 10.8642 13.474 10.7753C13.4315 10.6864 13.4096 10.5891 13.4098 10.4906C13.41 10.3921 13.4325 10.2949 13.4754 10.2062C13.5183 10.1175 13.5807 10.0397 13.6578 9.97839C14.3955 9.39496 15.2713 9.01188 16.2005 8.86625C17.1297 8.72063 18.0807 8.81738 18.9616 9.14714C19.0823 9.19287 19.1868 9.27325 19.262 9.37819C19.3372 9.48313 19.3797 9.60794 19.3841 9.73696C19.3886 9.86597 19.3549 9.99343 19.2871 10.1033C19.2194 10.2132 19.1207 10.3007 19.0034 10.3546ZM7.8234 14.9528L7.71027 14.8559L7.81402 14.9446L7.8234 14.9528ZM7.8234 14.9528L7.9059 15.0228C7.87855 14.999 7.85105 14.9762 7.8234 14.9528ZM3.16465 18.6453C3.31465 18.6859 3.4734 18.6859 3.62402 18.6459L3.98527 18.5515C3.47441 18.1811 3.01553 17.7439 2.6209 17.2515L2.53902 17.5578C2.50866 17.6702 2.50075 17.7876 2.51577 17.9032C2.53078 18.0187 2.56841 18.1301 2.62651 18.2311C2.68461 18.3321 2.76204 18.4207 2.85437 18.4917C2.94671 18.5628 3.05214 18.615 3.16465 18.6453ZM4.16215 17.0784C4.6069 17.4887 5.10749 17.834 5.64902 18.104L7.39777 17.6359C6.71726 17.2338 6.0823 16.7591 5.50402 16.2203C4.74797 15.5059 4.08787 14.6965 3.54027 13.8121L3.04402 15.6678C3.34778 16.1887 3.72428 16.6637 4.16215 17.0784ZM6.36027 15.3065C7.19435 16.0766 8.15129 16.7019 9.19152 17.1565L10.7484 16.739C9.32466 16.1761 8.04209 15.307 6.99152 14.1934C6.62365 13.8276 6.27645 13.4416 5.95152 13.0371C5.80777 12.859 5.67402 12.6809 5.54902 12.504C5.08135 11.8726 4.70825 11.1763 4.44152 10.4371L4.00215 12.1003C4.59861 13.2963 5.39627 14.3808 6.36027 15.3065ZM18.5691 12.8628C18.5077 12.7885 18.432 12.7272 18.3466 12.6828H18.3434C17.2842 12.0769 16.1034 11.7145 14.8866 11.6219C13.6699 11.5292 12.4478 11.7087 11.3091 12.1471L11.1891 12.1909L11.1947 12.1971C10.0105 12.6713 8.95333 13.4152 8.10715 14.3696C8.26902 14.5115 8.4259 14.6415 8.58152 14.7665C8.79965 14.9415 9.01902 15.1034 9.26902 15.2665C9.95107 14.4816 10.8156 13.8763 11.7866 13.504C12.7333 13.1326 13.7514 12.9788 14.7655 13.0537C15.7797 13.1287 16.7641 13.4306 17.6459 13.9371C17.7914 14.0244 17.9631 14.0574 18.1305 14.0303C18.298 14.0032 18.4504 13.9177 18.5609 13.789C18.6715 13.6603 18.7329 13.4967 18.7344 13.3271C18.7359 13.1574 18.6773 12.9934 18.5691 12.8628Z" fill="#1D6BF3"/>
<path d="M7.8234 14.9528L7.71027 14.8559L7.81402 14.9446L7.8234 14.9528ZM7.8234 14.9528L7.9059 15.0228C7.87855 14.999 7.85105 14.9762 7.8234 14.9528ZM19.0034 10.3546C18.9256 10.3906 18.8414 10.4109 18.7557 10.4143C18.6701 10.4178 18.5845 10.4043 18.5041 10.3746C17.8412 10.1266 17.126 10.0521 16.4263 10.1581C15.7266 10.2641 15.0656 10.5471 14.5059 10.9803C15.9603 11.0178 17.3822 11.414 18.6453 12.1359C18.9542 12.3102 19.1816 12.5996 19.278 12.9409C19.3743 13.2823 19.3319 13.6478 19.1598 13.958C18.9877 14.2681 18.7001 14.4977 18.3594 14.5965C18.0188 14.6954 17.653 14.6557 17.3416 14.4859C16.5939 14.0519 15.7623 13.7822 14.9022 13.6945C14.0422 13.6069 13.1733 13.7035 12.3534 13.9778C12.5628 14.3796 12.7197 14.8071 12.8191 15.2496C12.8547 15.3815 12.8722 15.5184 12.8716 15.6546C12.8928 15.8274 12.877 16.0026 12.8253 16.1688C12.7735 16.335 12.6871 16.4882 12.5716 16.6184C12.5216 16.6684 12.4659 16.7121 12.4059 16.749C12.2213 16.9264 11.9943 17.0536 11.7466 17.1184L3.78527 19.2496C3.52859 19.3181 3.25839 19.3178 3.00187 19.2487C2.74534 19.1796 2.51155 19.0441 2.32401 18.856C2.13647 18.6678 2.00181 18.4335 1.93356 18.1768C1.86532 17.92 1.86591 17.6498 1.93527 17.3934L4.06652 9.43089C4.13198 9.18036 4.26117 8.95105 4.44152 8.76526C4.4771 8.70763 4.51903 8.65417 4.56652 8.60589C4.69261 8.49324 4.84089 8.40824 5.00182 8.35635C5.16275 8.30447 5.33275 8.28685 5.5009 8.30464C5.65277 8.30089 5.80465 8.32026 5.9509 8.36214C6.33905 8.44983 6.71543 8.58326 7.07215 8.75964C7.24715 7.74714 7.0784 6.70464 6.59152 5.79964C6.49952 5.62807 6.47945 5.42699 6.53571 5.24063C6.59197 5.05426 6.71996 4.89788 6.89152 4.80589C7.06308 4.71389 7.26416 4.69381 7.45053 4.75007C7.63689 4.80633 7.79327 4.93432 7.88527 5.10589C8.61623 6.46761 8.80041 8.05682 8.40027 9.54964C8.88544 9.89405 9.34671 10.271 9.7809 10.6778C9.91256 10.5443 10.0912 10.4675 10.2786 10.4639C10.4661 10.4602 10.6476 10.53 10.7844 10.6583C10.9211 10.7865 11.0023 10.9632 11.0107 11.1505C11.019 11.3378 10.9539 11.521 10.8291 11.6609C11.7345 11.3066 12.6864 11.0853 13.6553 11.004C13.5785 10.9423 13.5165 10.8642 13.474 10.7753C13.4315 10.6864 13.4096 10.5891 13.4098 10.4906C13.41 10.3921 13.4325 10.2949 13.4754 10.2062C13.5183 10.1175 13.5807 10.0397 13.6578 9.97839C14.3955 9.39496 15.2713 9.01188 16.2005 8.86625C17.1297 8.72063 18.0807 8.81738 18.9616 9.14714C19.0823 9.19287 19.1868 9.27325 19.262 9.37819C19.3372 9.48313 19.3797 9.60794 19.3841 9.73696C19.3886 9.86597 19.3549 9.99343 19.2871 10.1033C19.2194 10.2132 19.1207 10.3007 19.0034 10.3546ZM3.16465 18.6453C3.31465 18.6859 3.4734 18.6859 3.62402 18.6459L3.98527 18.5515C3.47441 18.1811 3.01553 17.7439 2.6209 17.2515L2.53902 17.5578C2.50866 17.6702 2.50075 17.7876 2.51577 17.9032C2.53078 18.0187 2.56841 18.1301 2.62651 18.2311C2.68461 18.3321 2.76204 18.4207 2.85437 18.4917C2.94671 18.5628 3.05214 18.615 3.16465 18.6453ZM4.16215 17.0784C4.6069 17.4887 5.10749 17.834 5.64902 18.104L7.39777 17.6359C6.71726 17.2338 6.0823 16.7591 5.50402 16.2203C4.74797 15.5059 4.08787 14.6965 3.54027 13.8121L3.04402 15.6678C3.34778 16.1887 3.72428 16.6637 4.16215 17.0784ZM6.36027 15.3065C7.19435 16.0766 8.15129 16.7019 9.19152 17.1565L10.7484 16.739C9.32466 16.1761 8.04209 15.307 6.99152 14.1934C6.62365 13.8276 6.27645 13.4416 5.95152 13.0371C5.80777 12.859 5.67402 12.6809 5.54902 12.504C5.08135 11.8726 4.70825 11.1763 4.44152 10.4371L4.00215 12.1003C4.59861 13.2963 5.39627 14.3808 6.36027 15.3065ZM18.5691 12.8628C18.5077 12.7885 18.432 12.7272 18.3466 12.6828H18.3434C17.2842 12.0769 16.1034 11.7145 14.8866 11.6219C13.6699 11.5292 12.4478 11.7087 11.3091 12.1471L11.1891 12.1909L11.1947 12.1971C10.0105 12.6713 8.95333 13.4152 8.10715 14.3696C8.26902 14.5115 8.4259 14.6415 8.58152 14.7665C8.79965 14.9415 9.01902 15.1034 9.26902 15.2665C9.95107 14.4816 10.8156 13.8763 11.7866 13.504C12.7333 13.1326 13.7514 12.9788 14.7655 13.0537C15.7797 13.1287 16.7641 13.4306 17.6459 13.9371C17.7914 14.0244 17.9631 14.0574 18.1305 14.0303C18.298 14.0032 18.4504 13.9177 18.5609 13.789C18.6715 13.6603 18.7329 13.4967 18.7344 13.3271C18.7359 13.1574 18.6773 12.9934 18.5691 12.8628Z" stroke="#1D6BF3" stroke-width="0.2"/>
</g>
<defs>
<clipPath id="clip0_627_10058">
<rect width="20" height="21" fill="white" transform="translate(0.630859 0.5)"/>
</clipPath>
</defs>
</svg>
