<svg width="260" height="140" viewBox="0 0 260 140" fill="none" xmlns="http://www.w3.org/2000/svg">
<path d="M59.8809 88.1921H98.0874L106.66 112.771H68.4533L59.8809 88.1921Z" fill="black" fill-opacity="0.85"/>
<path d="M234.832 59.7757C234.832 59.7757 203.821 49.9787 198.057 64.8048C192.293 79.6309 229.32 101.344 237.354 93.4862C245.388 85.6286 224.082 74.5042 224.082 74.5042" stroke="black" stroke-opacity="0.85" stroke-width="2" stroke-linecap="round" stroke-linejoin="round"/>
<path d="M200.344 77.4523C200.344 77.4523 171.317 106.49 180.36 114.933C189.402 123.376 219.736 97.5975 211.945 93.7534C204.153 89.9092 194.433 109.538 201.949 115.024C209.464 120.509 226.141 105.236 220.11 103.398C214.079 101.561 202.325 116.388 211.945 123.41C221.564 130.432 233.142 113.584 226.984 109.825C220.827 106.067 223.724 127.184 223.724 127.184" stroke="black" stroke-opacity="0.85" stroke-width="2" stroke-linecap="round" stroke-linejoin="round"/>
<path d="M71.6809 104.291C71.7874 101.786 75.0518 98.7881 75.0518 98.7881C75.0518 98.7881 70.9692 100.371 67.8086 97.9782" stroke="black" stroke-opacity="0.85" stroke-width="2" stroke-linecap="round" stroke-linejoin="round"/>
<path d="M86.0449 120.698H197.596C200.357 120.698 202.596 122.937 202.596 125.698V128.691C202.596 131.453 200.357 133.691 197.596 133.691H86.0449V120.698Z" fill="black" fill-opacity="0.85"/>
<path d="M46.4023 125.698C46.4023 122.937 48.6409 120.698 51.4023 120.698H86.0455V133.691H51.4023C48.6409 133.691 46.4023 131.453 46.4023 128.691V125.698Z" fill="black" fill-opacity="0.25"/>
<path d="M47.1931 119.906L31.1519 49.9081C30.4343 46.7769 32.8132 43.7912 36.0255 43.7912H149.533C151.827 43.7912 153.827 45.3527 154.384 47.5785L172.466 119.906" stroke="black" stroke-opacity="0.85" stroke-width="2" stroke-linecap="round" stroke-linejoin="round"/>
<path d="M54.3301 38.2407C54.3301 38.2407 127.274 -12.7665 160.574 5.73348C193.874 24.2335 180.395 75.5056 170.881 63.6126C161.367 51.7197 199.424 24.7623 199.424 24.7623" stroke="black" stroke-opacity="0.85" stroke-width="2" stroke-linecap="round" stroke-linejoin="round"/>
<path d="M29.7513 62.8205C29.7513 62.8205 -1.17032 105.635 10.7226 119.907C22.6156 134.178 72.9624 100.482 72.9624 100.482" stroke="black" stroke-opacity="0.85" stroke-width="2" stroke-linecap="round" stroke-linejoin="round"/>
<path d="M51.9512 60.4411H90.0086" stroke="black" stroke-opacity="0.85" stroke-width="2" stroke-linecap="round" stroke-linejoin="round"/>
<path d="M105.072 60.4411H143.13" stroke="black" stroke-opacity="0.85" stroke-width="2" stroke-linecap="round" stroke-linejoin="round"/>
<path d="M54.3301 69.1628H92.3875" stroke="black" stroke-opacity="0.85" stroke-width="2" stroke-linecap="round" stroke-linejoin="round"/>
<path d="M107.453 69.1628H145.511" stroke="black" stroke-opacity="0.85" stroke-width="2" stroke-linecap="round" stroke-linejoin="round"/>
<path d="M113.795 92.9489H151.852" stroke="black" stroke-opacity="0.85" stroke-width="2" stroke-linecap="round" stroke-linejoin="round"/>
<path d="M56.709 78.6774H94.7665" stroke="black" stroke-opacity="0.85" stroke-width="2" stroke-linecap="round" stroke-linejoin="round"/>
<path d="M109.83 78.6774H147.888" stroke="black" stroke-opacity="0.85" stroke-width="2" stroke-linecap="round" stroke-linejoin="round"/>
<path d="M116.172 102.463H154.229" stroke="black" stroke-opacity="0.85" stroke-width="2" stroke-linecap="round" stroke-linejoin="round"/>
</svg>
