<svg width="20" height="21" viewBox="0 0 20 21" fill="none" xmlns="http://www.w3.org/2000/svg">
<path d="M10.0549 6.60938C7.88824 6.60938 6.16602 8.33159 6.16602 10.4983C6.16602 12.6649 7.88824 14.3872 10.0549 14.3872C12.2215 14.3872 13.9438 12.6649 13.9438 10.4983C13.9438 8.33159 12.2215 6.60938 10.0549 6.60938ZM10.0549 13.276C8.49935 13.276 7.27713 12.0538 7.27713 10.4983C7.27713 8.9427 8.49935 7.72049 10.0549 7.72049C11.6104 7.72049 12.8327 8.9427 12.8327 10.4983C12.8327 12.0538 11.6104 13.276 10.0549 13.276Z" fill="#B5B5B7"/>
<path d="M18.2224 8.66493L16.6668 8.16492L16.3335 7.3316L17.1113 5.88715C17.278 5.55382 17.2224 5.10938 16.9446 4.8316L15.6113 3.49826C15.3335 3.22048 14.8891 3.16492 14.5557 3.33159L13.1113 4.10936L12.278 3.77604L11.778 2.22048C11.6668 1.88714 11.3335 1.60938 10.9446 1.60938H9.05578C8.66689 1.60938 8.33356 1.88714 8.278 2.27603L7.778 3.83159C7.44467 3.88715 7.16689 3.99826 6.88911 4.16493L5.44467 3.38715C5.11133 3.22049 4.66689 3.27603 4.38911 3.55381L3.05578 4.88714C2.778 5.16492 2.72244 5.60937 2.88911 5.94271L3.61133 7.3316C3.50022 7.60937 3.38911 7.9427 3.278 8.22048L1.72245 8.72049C1.38911 8.8316 1.11133 9.16493 1.11133 9.55381V11.4427C1.11133 11.8316 1.38911 12.1649 1.778 12.276L3.33356 12.776L3.66689 13.6094L2.88911 15.0538C2.72244 15.3872 2.778 15.8316 3.05578 16.1094L4.38911 17.4427C4.66689 17.7205 5.11133 17.776 5.44467 17.6094L6.88911 16.8316L7.72244 17.1649L8.22244 18.776C8.33356 19.1094 8.66689 19.3872 9.05578 19.3872H10.9446C11.3335 19.3872 11.6668 19.1094 11.778 18.776L12.278 17.1649L13.1113 16.8316L14.5557 17.6094C14.8891 17.776 15.3335 17.7205 15.6113 17.4427L16.9446 16.1094C17.2224 15.8316 17.278 15.3872 17.1113 15.0538L16.3335 13.6094L16.6668 12.776L18.278 12.276C18.6113 12.1649 18.8891 11.8316 18.8891 11.4427V9.55381C18.8891 9.16493 18.6113 8.77604 18.2224 8.66493ZM17.778 11.276L15.778 11.8872L15.7224 12.1649L15.2224 13.3316L15.0557 13.6094L16.0557 15.4427L14.9446 16.5538L13.1113 15.5538L12.8335 15.7205C12.4446 15.9427 12.0557 16.1094 11.6668 16.2205L11.3891 16.276L10.778 18.276H9.22244L8.61133 16.276L8.33356 16.2205L7.16689 15.7205L6.88911 15.5538L5.05578 16.5538L3.94467 15.4427L4.94467 13.6094L4.778 13.3316C4.55578 12.9427 4.38911 12.5538 4.278 12.1649L4.22244 11.8872L2.22245 11.276V9.72049L4.11133 9.16493L4.22244 8.88715C4.33356 8.44271 4.50022 8.05381 4.72244 7.66492L4.88911 7.38715L3.94467 5.55382L5.05578 4.4427L6.83356 5.4427L7.11133 5.27604C7.50022 5.05382 7.88911 4.88715 8.33356 4.77604L8.61133 4.66492L9.22244 2.72048H10.778L11.3891 4.66492L11.6668 4.77604C12.0557 4.88715 12.4446 5.05382 12.8335 5.27604L13.1113 5.4427L14.9446 4.4427L16.0557 5.55382L15.0557 7.38715L15.2224 7.66492C15.4446 8.05381 15.6113 8.44271 15.7224 8.8316L15.778 9.10937L17.778 9.72049V11.276Z" fill="#B5B5B7"/>
</svg>
