<svg width="20" height="19" viewBox="0 0 20 19" fill="none" xmlns="http://www.w3.org/2000/svg">
<path d="M13.75 2C13.75 1.66848 13.8817 1.35054 14.1161 1.11612C14.3505 0.881696 14.6685 0.75 15 0.75H17.5C17.8315 0.75 18.1495 0.881696 18.3839 1.11612C18.6183 1.35054 18.75 1.66848 18.75 2V17H19.375C19.5408 17 19.6997 17.0658 19.8169 17.1831C19.9342 17.3003 20 17.4592 20 17.625C20 17.7908 19.9342 17.9497 19.8169 18.0669C19.6997 18.1842 19.5408 18.25 19.375 18.25H0.625C0.45924 18.25 0.300269 18.1842 0.183058 18.0669C0.065848 17.9497 0 17.7908 0 17.625C0 17.4592 0.065848 17.3003 0.183058 17.1831C0.300269 17.0658 0.45924 17 0.625 17H1.25V13.25C1.25 12.9185 1.3817 12.6005 1.61612 12.3661C1.85054 12.1317 2.16848 12 2.5 12H5C5.33152 12 5.64946 12.1317 5.88388 12.3661C6.1183 12.6005 6.25 12.9185 6.25 13.25V17H7.5V8.25C7.5 7.91848 7.6317 7.60054 7.86612 7.36612C8.10054 7.1317 8.41848 7 8.75 7H11.25C11.5815 7 11.8995 7.1317 12.1339 7.36612C12.3683 7.60054 12.5 7.91848 12.5 8.25V17H13.75V2ZM15 17H17.5V2H15V17ZM11.25 17V8.25H8.75V17H11.25ZM5 17V13.25H2.5V17H5Z" fill="white"/>
</svg>
