<svg width="18" height="17" viewBox="0 0 18 17" fill="none" xmlns="http://www.w3.org/2000/svg">
<path d="M16.4607 5.23915C15.5213 3.95009 14.2088 3.08876 12.7693 2.70009V2.70205C12.4353 2.33095 12.0584 1.98915 11.6365 1.68447C8.4392 -0.639751 3.95091 0.0692301 1.61693 3.2665C-0.263932 5.86415 -0.183854 9.3583 1.73412 11.8407L1.74974 14.4306C1.74974 14.4931 1.75951 14.5556 1.77904 14.6142C1.88256 14.9442 2.23412 15.1259 2.56224 15.0224L5.0349 14.2431C5.6892 14.4755 6.36498 14.6083 7.03685 14.6454L7.02709 14.6532C8.76732 15.9208 11.0486 16.3017 13.1404 15.6102L15.6228 16.4188C15.6853 16.4384 15.7498 16.4501 15.8162 16.4501C16.1619 16.4501 16.4412 16.1708 16.4412 15.8251V13.2079C18.1619 10.872 18.2068 7.64345 16.4607 5.23915ZM5.30834 12.8563L5.07396 12.7587L3.14037 13.3642L3.12084 11.3329L2.96459 11.1571C1.31224 9.1415 1.20287 6.2372 2.74974 4.10634C4.63256 1.52431 8.24193 0.954 10.8162 2.81728C13.3982 4.69423 13.9705 8.29775 12.1053 10.8642C10.5408 13.0106 7.73997 13.8036 5.30834 12.8563ZM15.1717 12.5243L15.0154 12.7196L15.0349 14.7509L13.1209 14.1063L12.8865 14.204C11.7928 14.6102 10.6267 14.6435 9.54666 14.3407L9.54276 14.3388C10.9861 13.8954 12.2947 12.997 13.2381 11.704C14.7303 9.6474 14.9724 7.06337 14.1053 4.86025L14.117 4.86806C14.5662 5.19033 14.9783 5.59267 15.3279 6.079C16.7459 8.02431 16.6658 10.6727 15.1717 12.5243Z" fill="#B5B5B7"/>
</svg>
