<svg width="18" height="16" viewBox="0 0 18 16" fill="none" xmlns="http://www.w3.org/2000/svg">
<path d="M15.875 3.14063H12.75V2.51563C12.7479 2.01898 12.5497 1.54326 12.1986 1.19207C11.8474 0.840886 11.3716 0.642682 10.875 0.640625H7.125C6.62835 0.642682 6.15263 0.840886 5.80145 1.19207C5.45026 1.54326 5.25206 2.01898 5.25 2.51563V3.14063H2.125C1.79348 3.14063 1.47554 3.27232 1.24112 3.50674C1.0067 3.74116 0.875 4.0591 0.875 4.39063V14.3906C0.875 14.7221 1.0067 15.0401 1.24112 15.2745C1.47554 15.5089 1.79348 15.6406 2.125 15.6406H15.875C16.2065 15.6406 16.5245 15.5089 16.7589 15.2745C16.9933 15.0401 17.125 14.7221 17.125 14.3906V4.39063C17.125 4.0591 16.9933 3.74116 16.7589 3.50674C16.5245 3.27232 16.2065 3.14063 15.875 3.14063ZM6.5 2.51563C6.5 2.34986 6.56585 2.19089 6.68306 2.07368C6.80027 1.95647 6.95924 1.89063 7.125 1.89063H10.875C11.0408 1.89063 11.1997 1.95647 11.3169 2.07368C11.4342 2.19089 11.5 2.34986 11.5 2.51563V3.14063H6.5V2.51563ZM15.875 4.39063V10.0156H2.125V4.39063H15.875ZM15.875 14.3906H2.125V11.2656H15.875V14.3906Z" fill="#B5B5B7"/>
</svg>
